 <svg  version="1.0" xmlns="http://www.w3.org/2000/svg"  width="300.000000pt" height="243.000000pt" viewBox="0 0 300.000000 243.000000"  preserveAspectRatio="xMidYMid meet">  <g transform="translate(0.000000,243.000000) scale(0.100000,-0.100000)" fill="#d2cec8" stroke="none"> <path d="M657 1728 c-14 -11 -17 -36 -19 -158 -3 -136 -4 -145 -23 -148 -71 -11 -65 10 -65 -216 l0 -203 -137 -6 c-154 -6 -193 -16 -193 -48 0 -12 29 -69 63 -128 35 -58 79 -133 98 -166 44 -79 157 -257 172 -273 10 -10 207 -12 936 -12 l924 0 12 22 c7 13 35 64 62 113 64 116 129 239 210 395 36 69 86 160 110 203 46 79 55 119 34 140 -12 12 -336 22 -706 22 l-180 0 -12 -40 c-7 -22 -19 -65 -28 -95 -16 -62 -66 -144 -99 -162 -15 -9 -113 -13 -343 -13 l-323 -1 0 218 0 218 -27 17 c-21 14 -57 19 -177 23 l-151 5 -5 133 c-5 126 -6 135 -29 153 -27 22 -79 25 -104 7z m325 -550 c2 -55 -1 -97 -7 -103 -6 -6 -62 -9 -137 -7 l-128 3 0 100 0 99 134 0 135 0 3 -92z m1349 -239 c61 -43 58 -141 -5 -180 -81 -50 -186 3 -186 94 0 98 107 146 191 86z"/> </g> </svg> 