 <svg  version="1.0" xmlns="http://www.w3.org/2000/svg"  width="300.000000pt" height="243.000000pt" viewBox="0 0 300.000000 243.000000"  preserveAspectRatio="xMidYMid meet">  <g transform="translate(0.000000,243.000000) scale(0.100000,-0.100000)" fill="#d2cec8" stroke="none"> <path d="M1065 2366 c-11 -8 -20 -27 -20 -42 -1 -23 -9 -33 -38 -46 -56 -27 -60 -90 -7 -118 25 -13 60 19 60 55 0 18 5 25 19 25 34 0 71 38 71 75 0 48 -49 78 -85 51z"/> <path d="M1482 2364 c-15 -10 -22 -25 -22 -47 0 -28 -4 -34 -32 -42 -27 -8 -34 -16 -36 -42 -7 -73 56 -104 83 -41 7 18 11 36 9 40 -3 5 7 8 21 8 30 0 75 41 75 68 0 25 -28 58 -55 66 -12 3 -31 -1 -43 -10z"/> <path d="M1908 2368 c-9 -7 -18 -28 -20 -47 -3 -28 -8 -35 -38 -45 -48 -15 -62 -55 -33 -94 11 -15 27 -28 35 -30 25 -5 48 27 48 64 0 32 2 34 29 32 32 -2 56 13 64 41 5 21 -18 81 -32 81 -5 0 -15 2 -23 5 -7 3 -21 0 -30 -7z"/> <path d="M890 2064 l0 -44 130 0 130 0 0 45 0 46 -130 -2 -130 -1 0 -44z"/> <path d="M1320 2063 l0 -43 128 0 127 0 -1 42 -1 43 -127 1 -126 1 0 -44z"/> <path d="M1740 2063 l0 -43 130 0 130 0 0 46 0 45 -130 -3 -130 -3 0 -42z"/> <path d="M890 1940 l0 -30 130 0 130 0 0 30 0 30 -130 0 -130 0 0 -30z"/> <path d="M1320 1956 c0 -8 -3 -21 -6 -30 -5 -14 10 -16 125 -16 l131 0 0 30 0 30 -125 0 c-101 0 -125 -3 -125 -14z"/> <path d="M1740 1940 l0 -30 130 0 130 0 0 30 0 30 -130 0 -130 0 0 -30z"/> <path d="M890 1748 l0 -113 126 2 125 2 5 111 4 110 -130 0 -130 0 0 -112z m214 56 c9 -23 7 -97 -3 -112 -5 -9 -30 -12 -87 -10 l-79 3 -2 55 c-1 30 0 61 2 68 3 8 29 12 84 12 63 0 80 -3 85 -16z"/> <path d="M1320 1748 l0 -113 125 0 125 0 0 113 0 112 -125 0 -125 0 0 -112z m208 5 l-3 -68 -82 -3 -83 -3 0 64 c0 35 3 67 7 70 3 4 42 7 85 7 l79 0 -3 -67z"/> <path d="M1740 1748 l0 -113 130 0 130 0 0 113 0 112 -130 0 -130 0 0 -112z m215 2 l0 -65 -87 -3 -88 -3 0 64 c0 35 3 67 7 71 4 4 43 5 88 4 l80 -3 0 -65z"/> <path d="M638 1468 l3 -77 72 -3 71 -3 1 -35 c0 -19 2 -70 3 -114 2 -62 5 -76 15 -68 18 15 345 139 573 217 l81 27 89 -31 c184 -66 392 -145 477 -181 l87 -38 2 72 c1 39 0 90 -1 114 l-3 42 71 0 71 0 0 78 0 77 -807 0 -808 0 3 -77z m322 32 l25 0 -28 -25 c-15 -14 -27 -35 -27 -46 0 -24 43 -69 65 -69 23 0 57 19 75 41 14 17 17 16 52 -16 20 -19 33 -37 29 -39 -4 -3 -52 -21 -107 -41 -54 -19 -108 -39 -119 -44 -36 -16 -88 -31 -93 -26 -3 2 -7 35 -10 73 -2 37 -10 76 -18 86 -7 10 -37 24 -66 31 -43 9 -54 16 -56 34 -8 51 -2 54 131 47 67 -3 133 -5 147 -6z m169 1 c10 -1 5 -11 -14 -31 l-29 -30 -24 24 c-30 30 -24 42 20 39 18 -1 39 -2 47 -2z m157 -2 c3 -5 -2 -19 -10 -30 -9 -14 -13 -33 -9 -50 4 -24 1 -30 -18 -38 -28 -10 -34 -7 -23 11 15 24 14 48 -3 74 -13 20 -14 27 -4 34 17 10 60 10 67 -1z m231 3 c22 -14 -18 -51 -62 -57 -37 -4 -43 -2 -58 24 -16 28 -16 30 0 33 35 8 108 8 120 0z m178 2 c14 -6 12 -11 -11 -36 -25 -26 -27 -32 -17 -58 9 -23 8 -30 -1 -30 -23 0 -36 22 -25 43 8 14 8 26 -2 44 -11 20 -11 26 1 33 18 11 32 12 55 4z m503 -2 c8 -5 12 -22 10 -38 -3 -26 -8 -30 -45 -35 -24 -3 -53 -15 -66 -27 -20 -19 -23 -30 -21 -93 1 -47 -2 -72 -10 -75 -10 -4 -154 48 -294 107 l-24 9 31 36 c17 19 31 39 31 44 0 4 -12 22 -26 39 l-26 31 60 0 60 0 -29 -29 c-35 -36 -36 -51 -4 -81 67 -63 166 13 104 79 -15 15 -18 25 -11 30 17 10 245 13 260 3z m-828 -56 c0 -24 -16 -36 -51 -36 -13 0 -19 7 -19 23 0 31 7 37 42 37 23 0 28 -4 28 -24z m240 -1 c0 -22 -4 -25 -34 -25 -37 0 -51 12 -42 35 3 9 19 15 41 15 31 0 35 -3 35 -25z m-570 -16 c0 -29 -2 -30 -37 -27 -30 2 -39 8 -41 25 -3 21 2 24 66 32 7 0 12 -11 12 -30z m160 1 c0 -28 -3 -30 -35 -30 -32 0 -35 2 -35 30 0 28 3 30 35 30 32 0 35 -2 35 -30z m570 0 c0 -28 -3 -30 -35 -30 -32 0 -35 2 -35 30 0 28 3 30 35 30 32 0 35 -2 35 -30z m168 -3 c3 -25 1 -27 -37 -27 -37 0 -41 3 -41 24 0 19 6 26 28 29 41 6 47 3 50 -26z"/> <path d="M1235 1229 c-115 -44 -304 -114 -420 -156 -116 -42 -211 -77 -212 -78 -4 -2 117 -347 154 -440 72 -181 120 -264 210 -354 46 -46 83 -85 83 -87 0 -2 -90 -4 -200 -4 l-200 0 0 -24 c0 -23 4 -24 68 -28 111 -5 630 7 639 15 16 17 -18 44 -119 93 -65 32 -123 69 -151 96 -43 41 -48 43 -71 31 -29 -15 -28 -17 -55 71 -24 77 -28 197 -8 236 19 38 46 35 107 -11 30 -22 70 -49 90 -59 19 -10 46 -29 58 -43 20 -21 22 -28 12 -47 -15 -28 -5 -39 46 -50 70 -16 71 -14 76 128 3 70 3 131 0 136 -2 5 -42 6 -87 2 l-83 -7 -31 38 c-73 89 -5 194 107 164 24 -6 47 -10 49 -7 3 2 -3 16 -12 29 -9 14 -19 50 -22 80 -10 98 47 181 143 206 95 25 211 -37 239 -127 13 -45 7 -112 -15 -149 -24 -42 -22 -47 14 -33 52 19 86 12 123 -25 32 -32 35 -39 30 -78 -4 -30 -15 -50 -37 -70 -30 -26 -33 -27 -115 -21 l-85 7 0 -130 c0 -150 4 -159 69 -148 21 3 47 12 57 20 18 13 18 14 1 32 -25 29 -22 39 28 70 25 15 79 49 119 76 41 26 83 47 95 47 45 0 55 -145 18 -259 -13 -39 -26 -73 -29 -77 -4 -3 -16 -1 -27 5 -18 10 -27 5 -68 -35 -30 -29 -83 -63 -143 -91 -91 -44 -138 -82 -125 -103 4 -6 137 -10 361 -10 l354 0 0 25 c0 29 13 27 -210 30 -100 1 -141 -2 -157 -12 -40 -24 -26 5 35 75 71 81 123 164 163 263 46 112 201 552 196 555 -1 0 -51 18 -112 38 -101 35 -427 159 -636 242 -48 19 -90 34 -95 34 -5 -1 -103 -37 -219 -81z m385 -21 c30 -10 69 -25 85 -32 52 -24 205 -82 372 -142 140 -51 163 -62 163 -80 0 -19 -124 -381 -165 -479 -44 -106 -83 -172 -166 -275 -19 -25 -41 -57 -47 -73 -12 -27 -12 -27 -112 -27 -112 0 -119 7 -41 44 52 24 131 77 150 100 8 9 26 16 41 16 34 0 53 21 78 85 43 110 36 259 -13 305 -22 20 -29 22 -58 13 -19 -5 -66 -31 -105 -57 -39 -25 -75 -46 -80 -46 -5 0 -28 -20 -50 -44 -30 -33 -39 -50 -35 -66 5 -18 2 -21 -13 -18 -17 3 -19 13 -19 93 l0 90 69 2 c74 2 102 15 139 65 25 33 25 98 0 141 -16 27 -42 45 -112 76 -9 5 -13 25 -13 66 0 239 -307 325 -433 120 -26 -42 -30 -57 -28 -116 l1 -67 -43 -11 c-51 -13 -99 -63 -109 -113 -8 -46 13 -97 60 -137 33 -30 41 -32 97 -29 58 3 60 2 68 -24 4 -14 4 -56 2 -93 -5 -52 -9 -65 -21 -63 -9 2 -19 16 -23 32 -4 15 -16 37 -25 47 -26 29 -206 147 -229 150 -32 5 -62 -10 -81 -39 -26 -38 -26 -199 -1 -260 44 -109 -7 -65 -62 53 -18 39 -37 77 -41 86 -34 68 -148 390 -156 442 -4 25 -2 37 6 37 7 0 26 7 43 15 18 8 88 34 157 58 128 46 249 92 285 108 11 5 85 32 163 59 l144 49 51 -21 c29 -11 77 -29 107 -40z m-538 -992 c20 -17 66 -46 102 -64 36 -19 64 -38 61 -43 -4 -5 -42 -9 -85 -9 -73 0 -79 2 -85 23 -4 12 -32 48 -64 80 l-56 58 45 -7 c28 -5 58 -19 82 -38z"/> <path d="M1924 1027 c-36 -19 -64 -51 -64 -73 0 -36 47 -84 82 -84 44 0 92 51 83 88 -13 54 -64 89 -101 69z m50 -43 c24 -24 20 -63 -8 -75 -48 -22 -95 33 -60 72 21 23 47 24 68 3z"/> <path d="M909 1001 c-16 -16 -29 -39 -29 -51 0 -32 53 -80 87 -80 70 0 97 88 42 134 -40 34 -64 33 -100 -3z m81 -21 c11 -11 20 -25 20 -31 0 -23 -22 -49 -40 -49 -21 0 -60 33 -60 50 0 6 9 19 20 30 11 11 25 20 30 20 6 0 19 -9 30 -20z"/> <path d="M1403 1085 c-54 -23 -87 -94 -71 -152 5 -19 25 -46 48 -64 25 -20 40 -41 40 -54 0 -19 -7 -23 -46 -29 -69 -9 -132 -7 -139 4 -11 18 -34 11 -51 -16 -17 -24 -16 -26 8 -50 22 -22 27 -24 39 -11 11 10 35 13 103 9 l88 -5 -4 -161 c-4 -175 -14 -212 -65 -235 -52 -24 -135 -2 -210 55 -38 28 -42 50 -13 59 29 9 25 23 -12 39 -18 8 -49 26 -68 40 l-35 27 -3 -31 c-2 -17 2 -55 8 -84 9 -45 14 -53 30 -49 13 3 30 -8 56 -37 27 -30 72 -58 162 -102 105 -52 130 -68 155 -105 l31 -43 17 29 c24 40 84 87 138 106 87 33 162 79 201 122 22 25 41 39 45 33 12 -20 22 -10 33 33 15 58 25 127 18 127 -3 0 -29 -15 -58 -33 -29 -19 -61 -36 -70 -40 -24 -9 -23 -28 2 -34 29 -8 25 -27 -12 -55 -83 -63 -165 -83 -217 -52 -53 31 -61 64 -61 237 l0 154 82 6 c51 3 88 1 95 -5 19 -15 61 -1 69 24 8 27 -30 63 -55 51 -9 -4 -54 -8 -101 -8 l-85 0 -3 32 c-2 24 1 33 17 38 30 9 69 61 77 102 9 48 -16 94 -66 122 -43 24 -72 26 -117 6z m103 -80 c57 -57 -26 -135 -89 -85 -30 24 -34 55 -11 88 21 31 68 29 100 -3z m-32 -237 c7 -12 6 -21 -4 -32 -12 -15 -14 -15 -31 0 -15 13 -16 20 -6 35 13 21 26 20 41 -3z m13 -429 c20 -22 52 -48 72 -58 l35 -18 -25 -13 c-13 -7 -43 -28 -66 -46 -23 -19 -44 -34 -47 -34 -3 0 -26 15 -51 34 -24 19 -54 37 -65 41 -29 9 -25 22 14 40 42 20 73 48 81 75 3 11 8 20 11 20 2 0 21 -18 41 -41z"/> <path d="M2320 89 l0 -29 96 0 95 0 -3 28 -3 27 -92 2 -93 1 0 -29z"/> <path d="M408 105 c-3 -3 -3 -17 0 -32 5 -25 6 -25 65 -19 33 3 75 6 93 6 30 0 34 3 34 25 0 25 0 25 -93 25 -52 0 -96 -2 -99 -5z"/> </g> </svg> 